# Blender 3.3.1
# www.blender.org
mtllib comparator0ff-0n.mtl
o Cube.001
v -0.500000 0.300000 0.500000
v -0.500000 0.500000 0.500000
v -0.500000 0.300000 -0.500000
v -0.500000 0.500000 -0.500000
v 0.500000 0.300000 0.500000
v 0.500000 0.500000 0.500000
v 0.500000 0.300000 -0.500000
v 0.500000 0.500000 -0.500000
vn -1.0000 -0.0000 -0.0000
vn -0.0000 -0.0000 -1.0000
vn 1.0000 -0.0000 -0.0000
vn -0.0000 -0.0000 1.0000
vn -0.0000 -1.0000 -0.0000
vn -0.0000 1.0000 -0.0000
vt 0.749959 0.231273
vt 0.750532 0.044229
vt 0.562628 0.231441
vt 0.787538 0.231255
vt 0.787657 0.044020
vt 0.974856 0.231512
vt 0.533517 0.234263
vt 0.750199 0.268752
vt 0.750684 0.456954
vt 0.562439 0.269142
vt 0.787372 0.268868
vt 0.975123 0.269145
vt 0.788024 0.456570
vt 0.533985 0.270985
s 0
usemtl Material.001
f 1/1/1 2/2/1 4/5/1 3/4/1
f 3/4/2 4/6/2 8/12/2 7/11/2
f 7/11/3 8/13/3 6/9/3 5/8/3
f 5/8/4 6/10/4 2/3/4 1/1/4
f 3/4/5 7/11/5 5/8/5 1/1/5
f 8/14/6 4/7/6 2/3/6 6/10/6
o Cube.002
v -0.300000 0.050000 -0.150000
v -0.300000 0.350000 -0.150000
v -0.300000 0.050000 -0.250000
v -0.300000 0.350000 -0.250000
v -0.200000 0.050000 -0.150000
v -0.200000 0.350000 -0.150000
v -0.200000 0.050000 -0.250000
v -0.200000 0.350000 -0.250000
vn -1.0000 -0.0000 -0.0000
vn -0.0000 -0.0000 -1.0000
vn 1.0000 -0.0000 -0.0000
vn -0.0000 -0.0000 1.0000
vn -0.0000 -1.0000 -0.0000
vn -0.0000 1.0000 -0.0000
vt 0.250000 0.958707
vt 0.062658 0.769842
vt 0.250531 0.768100
vt 0.288706 0.954957
vt 0.474588 0.769794
vt 0.049774 0.769055
vt 0.287132 0.768494
vt 0.250172 0.543647
vt 0.062374 0.731776
vt 0.250031 0.731476
vt 0.475662 0.731823
vt 0.287689 0.543709
vt 0.049459 0.732169
vt 0.288067 0.731776
s 0
usemtl Material.009
f 9/15/7 10/17/7 12/21/7 11/18/7
f 11/19/8 12/21/8 16/28/8 15/25/8
f 15/26/9 16/28/9 14/24/9 13/22/9
f 13/23/10 14/24/10 10/17/10 9/16/10
f 11/20/11 15/27/11 13/23/11 9/16/11
f 16/28/12 12/21/12 10/17/12 14/24/12
o Cube.003
v 0.100000 0.050000 0.050000
v 0.100000 0.350000 0.050000
v 0.100000 0.050000 -0.050000
v 0.100000 0.350000 -0.050000
v 0.200000 0.050000 0.050000
v 0.200000 0.350000 0.050000
v 0.200000 0.050000 -0.050000
v 0.200000 0.350000 -0.050000
vn -1.0000 -0.0000 -0.0000
vn -0.0000 -0.0000 -1.0000
vn 1.0000 -0.0000 -0.0000
vn -0.0000 -0.0000 1.0000
vn -0.0000 -1.0000 -0.0000
vn -0.0000 1.0000 -0.0000
vt 0.062449 0.731500
vt 0.250183 0.545786
vt 0.250043 0.999913
vt 0.249922 0.731385
vt 0.062743 0.768750
vt 0.250225 0.955941
vt 0.250520 0.769327
vt 0.475215 0.731244
vt 0.287982 0.543771
vt 0.288181 0.999913
vt 0.287813 0.731450
vt 0.475262 0.768990
vt 0.287102 0.956736
vt 0.288419 0.768975
s 0
usemtl Material.013
f 17/29/13 18/32/13 20/35/13 19/33/13
f 19/34/14 20/35/14 24/42/14 23/41/14
f 23/40/15 24/42/15 22/39/15 21/36/15
f 21/37/16 22/39/16 18/32/16 17/30/16
f 19/34/17 23/41/17 21/38/17 17/31/17
f 24/42/18 20/35/18 18/32/18 22/39/18
o Cube.004
v -0.300000 -0.050000 -0.150000
v -0.300000 0.050000 -0.150000
v -0.300000 -0.050000 -0.250000
v -0.300000 0.050000 -0.250000
v -0.200000 -0.050000 -0.150000
v -0.200000 0.050000 -0.150000
v -0.200000 -0.050000 -0.250000
v -0.200000 0.050000 -0.250000
vn -1.0000 -0.0000 -0.0000
vn -0.0000 -0.0000 -1.0000
vn 1.0000 -0.0000 -0.0000
vn -0.0000 -0.0000 1.0000
vn -0.0000 -1.0000 -0.0000
vn -0.0000 1.0000 -0.0000
vt 0.787576 0.731576
vt 0.975265 0.731264
vt 0.787223 0.543763
vt 0.787529 0.768633
vt 0.975217 0.768818
vt 0.787426 0.956107
vt 0.786300 0.535304
vt 0.750097 0.731233
vt 0.562587 0.731875
vt 0.750271 0.543762
vt 0.750212 0.768880
vt 0.750242 0.956269
vt 0.562899 0.769019
vt 0.751464 0.533668
s 0
usemtl Material.007
f 25/43/19 26/44/19 28/47/19 27/46/19
f 27/46/20 28/48/20 32/54/20 31/53/20
f 31/53/21 32/55/21 30/51/21 29/50/21
f 29/50/22 30/52/22 26/45/22 25/43/22
f 27/46/23 31/53/23 29/50/23 25/43/23
f 32/56/24 28/49/24 26/45/24 30/52/24
o Cube.005
v 0.100000 -0.050000 0.050000
v 0.100000 0.050000 0.050000
v 0.100000 -0.050000 -0.050000
v 0.100000 0.050000 -0.050000
v 0.200000 -0.050000 0.050000
v 0.200000 0.050000 0.050000
v 0.200000 -0.050000 -0.050000
v 0.200000 0.050000 -0.050000
vn -1.0000 -0.0000 -0.0000
vn -0.0000 -0.0000 -1.0000
vn 1.0000 -0.0000 -0.0000
vn -0.0000 -0.0000 1.0000
vn -0.0000 -1.0000 -0.0000
vn -0.0000 1.0000 -0.0000
vt 0.750279 0.731329
vt 0.562819 0.732173
vt 0.750036 0.544057
vt 0.787180 0.731103
vt 0.975231 0.731617
vt 0.787655 0.543693
vt 0.750117 0.769116
vt 0.750146 0.956179
vt 0.562826 0.768444
vt 0.750347 0.539423
vt 0.788061 0.768791
vt 0.974606 0.769327
vt 0.787510 0.955982
vt 0.787732 0.539076
s 0
usemtl Material.011
f 33/57/25 34/59/25 36/62/25 35/60/25
f 35/60/26 36/61/26 40/68/26 39/67/26
f 39/67/27 40/69/27 38/64/27 37/63/27
f 37/63/28 38/65/28 34/58/28 33/57/28
f 35/60/29 39/67/29 37/63/29 33/57/29
f 40/70/30 36/62/30 34/59/30 38/66/30
o Cube
v -0.300000 0.050000 0.250000
v -0.300000 0.350000 0.250000
v -0.300000 0.050000 0.150000
v -0.300000 0.350000 0.150000
v -0.200000 0.050000 0.250000
v -0.200000 0.350000 0.250000
v -0.200000 0.050000 0.150000
v -0.200000 0.350000 0.150000
vn -1.0000 -0.0000 -0.0000
vn -0.0000 -0.0000 -1.0000
vn 1.0000 -0.0000 -0.0000
vn -0.0000 -0.0000 1.0000
vn -0.0000 -1.0000 -0.0000
vn -0.0000 1.0000 -0.0000
vt 0.062743 0.731449
vt 0.250200 0.543837
vt 0.250663 0.959236
vt 0.249798 0.731569
vt 0.062430 0.768594
vt 0.250239 0.956194
vt 0.249964 0.768887
vt 0.475091 0.731323
vt 0.287500 0.543993
vt 0.287494 0.959108
vt 0.287697 0.731303
vt 0.474842 0.768740
vt 0.287502 0.956363
vt 0.287530 0.768632
s 0
usemtl Material.005
f 41/71/31 42/74/31 44/77/31 43/75/31
f 43/76/32 44/77/32 48/84/32 47/83/32
f 47/82/33 48/84/33 46/81/33 45/78/33
f 45/79/34 46/81/34 42/74/34 41/72/34
f 43/76/35 47/83/35 45/80/35 41/73/35
f 48/84/36 44/77/36 42/74/36 46/81/36
o Cube.006
v -0.300000 -0.050000 0.250000
v -0.300000 0.050000 0.250000
v -0.300000 -0.050000 0.150000
v -0.300000 0.050000 0.150000
v -0.200000 -0.050000 0.250000
v -0.200000 0.050000 0.250000
v -0.200000 -0.050000 0.150000
v -0.200000 0.050000 0.150000
vn -1.0000 -0.0000 -0.0000
vn -0.0000 -0.0000 -1.0000
vn 1.0000 -0.0000 -0.0000
vn -0.0000 -0.0000 1.0000
vn -0.0000 -1.0000 -0.0000
vn -0.0000 1.0000 -0.0000
vt 0.787613 0.768437
vt 0.787219 0.956244
vt 0.975226 0.768437
vt 0.556027 0.768127
vt 0.750313 0.768438
vt 0.750250 0.956423
vt 0.562464 0.768521
vt 0.787829 0.731765
vt 0.787361 0.544404
vt 0.975226 0.731606
vt 0.556027 0.731176
vt 0.750212 0.731766
vt 0.750286 0.544359
vt 0.562858 0.731766
s 0
usemtl Material.003
f 49/85/37 50/86/37 52/90/37 51/89/37
f 51/89/38 52/91/38 56/98/38 55/96/38
f 55/96/39 56/97/39 54/93/39 53/92/39
f 53/92/40 54/94/40 50/87/40 49/85/40
f 51/89/41 55/96/41 53/92/41 49/85/41
f 56/98/42 52/91/42 50/88/42 54/95/42
