# Blender 3.3.1
# www.blender.org
mtllib stone.mtl
o Cube
v -0.500000 -0.500000 0.500000
v -0.500000 0.500000 0.500000
v -0.500000 -0.500000 -0.500000
v -0.500000 0.500000 -0.500000
v 0.500000 -0.500000 0.500000
v 0.500000 0.500000 0.500000
v 0.500000 -0.500000 -0.500000
v 0.500000 0.500000 -0.500000
vn -1.0000 -0.0000 -0.0000
vn -0.0000 -0.0000 -1.0000
vn 1.0000 -0.0000 -0.0000
vn -0.0000 -0.0000 1.0000
vn -0.0000 -1.0000 -0.0000
vn -0.0000 1.0000 -0.0000
vt 0.000087 0.749957
vt 0.749957 0.500000
vt 0.999913 0.500000
vt 0.000087 0.500000
vt 0.250043 0.749957
vt 0.500000 0.500000
vt 0.250043 0.500000
vt 0.000087 0.000087
vt 0.749957 0.250043
vt 0.999913 0.250043
vt 0.000087 0.250043
vt 0.250043 0.000087
vt 0.500000 0.250043
vt 0.250043 0.250043
s 0
usemtl Material.002
f 1/1/1 2/4/1 4/7/1 3/5/1
f 3/6/2 4/7/2 8/14/2 7/13/2
f 7/12/3 8/14/3 6/11/3 5/8/3
f 5/9/4 6/10/4 2/3/4 1/2/4
f 3/6/5 7/13/5 5/9/5 1/2/5
f 8/14/6 4/7/6 2/4/6 6/11/6
