# Blender 3.3.1
# www.blender.org
mtllib switchon.mtl
o Cube
v -0.350000 0.350000 0.200000
v -0.350000 0.550000 0.200000
v -0.350000 0.350000 -0.200000
v -0.350000 0.550000 -0.200000
v 0.350000 0.350000 0.200000
v 0.350000 0.550000 0.200000
v 0.350000 0.350000 -0.200000
v 0.350000 0.550000 -0.200000
vn -1.0000 -0.0000 -0.0000
vn -0.0000 -0.0000 -1.0000
vn 1.0000 -0.0000 -0.0000
vn -0.0000 -0.0000 1.0000
vn -0.0000 -1.0000 -0.0000
vn -0.0000 1.0000 -0.0000
vt 0.679653 0.240287
vt 0.919834 0.160227
vt 0.999894 0.160227
vt 0.679653 0.160227
vt 0.759713 0.240287
vt 0.839773 0.160227
vt 0.759713 0.160227
vt 0.679653 0.000106
vt 0.919834 0.080166
vt 0.999894 0.080166
vt 0.679653 0.080166
vt 0.759713 0.000106
vt 0.839773 0.080166
vt 0.759713 0.080166
s 0
usemtl Material.002
f 1/1/1 2/4/1 4/7/1 3/5/1
f 3/6/2 4/7/2 8/14/2 7/13/2
f 7/12/3 8/14/3 6/11/3 5/8/3
f 5/9/4 6/10/4 2/3/4 1/2/4
f 3/6/5 7/13/5 5/9/5 1/2/5
f 8/14/6 4/7/6 2/4/6 6/11/6
o Cube.001
v 0.026256 0.479810 0.075000
v 0.379810 0.126256 0.075000
v 0.026256 0.479810 -0.075000
v 0.379810 0.126256 -0.075000
v -0.079810 0.373744 0.075000
v 0.273744 0.020190 0.075000
v -0.079810 0.373744 -0.075000
v 0.273744 0.020190 -0.075000
vn 0.7071 0.7071 -0.0000
vn -0.0000 -0.0000 -1.0000
vn -0.7071 -0.7071 -0.0000
vn -0.0000 -0.0000 1.0000
vn -0.7071 0.7071 -0.0000
vn 0.7071 -0.7071 -0.0000
vt 0.287308 0.545109
vt 0.475378 0.732176
vt 0.286746 0.988385
vt 0.287683 0.731238
vt 0.251427 0.543423
vt 0.062251 0.731581
vt 0.249051 0.988385
vt 0.250613 0.731551
vt 0.474440 0.769246
vt 0.287168 0.955673
vt 0.287631 0.768938
vt 0.062262 0.769196
vt 0.250325 0.956748
vt 0.250962 0.768613
s 0
usemtl Material.004
f 9/15/7 10/18/7 12/22/7 11/19/7
f 11/20/8 12/22/8 16/28/8 15/26/8
f 15/27/9 16/28/9 14/25/9 13/24/9
f 13/23/10 14/25/10 10/18/10 9/16/10
f 11/21/11 15/27/11 13/24/11 9/17/11
f 16/28/12 12/22/12 10/18/12 14/25/12
