# Blender 3.3.1
# www.blender.org
mtllib torchon.mtl
o Cube
v -0.050000 -0.250000 0.050000
v -0.050000 -0.150000 0.050000
v -0.050000 -0.250000 -0.050000
v -0.050000 -0.150000 -0.050000
v 0.050000 -0.250000 0.050000
v 0.050000 -0.150000 0.050000
v 0.050000 -0.250000 -0.050000
v 0.050000 -0.150000 -0.050000
vn -1.0000 -0.0000 -0.0000
vn -0.0000 -0.0000 -1.0000
vn 1.0000 -0.0000 -0.0000
vn -0.0000 -0.0000 1.0000
vn -0.0000 -1.0000 -0.0000
vn -0.0000 1.0000 -0.0000
vt 0.787030 0.732087
vt 0.975062 0.731344
vt 0.788126 0.543712
vt 0.556617 0.731569
vt 0.786998 0.769171
vt 0.974864 0.769356
vt 0.787345 0.956579
vt 0.557011 0.769111
vt 0.750522 0.731542
vt 0.750371 0.543784
vt 0.562661 0.731372
vt 0.750349 0.768564
vt 0.750224 0.956170
vt 0.562661 0.769111
s 0
usemtl Material.004
f 1/1/1 2/2/1 4/6/1 3/5/1
f 3/5/2 4/7/2 8/13/2 7/12/2
f 7/12/3 8/14/3 6/11/3 5/9/3
f 5/9/4 6/10/4 2/3/4 1/1/4
f 3/5/5 7/12/5 5/9/5 1/1/5
f 8/14/6 4/8/6 2/4/6 6/11/6
o Cube.001
v -0.050000 -0.150000 0.050000
v -0.050000 0.500000 0.050000
v -0.050000 -0.150000 -0.050000
v -0.050000 0.500000 -0.050000
v 0.050000 -0.150000 0.050000
v 0.050000 0.500000 0.050000
v 0.050000 -0.150000 -0.050000
v 0.050000 0.500000 -0.050000
vn -1.0000 -0.0000 -0.0000
vn -0.0000 -0.0000 -1.0000
vn 1.0000 -0.0000 -0.0000
vn -0.0000 -0.0000 1.0000
vn -0.0000 -1.0000 -0.0000
vn -0.0000 1.0000 -0.0000
vt 0.063476 0.731176
vt 0.251156 0.545018
vt 0.251618 0.981014
vt 0.250831 0.732751
vt 0.252082 0.731279
vt 0.063083 0.769308
vt 0.250831 0.954694
vt 0.250831 0.769308
vt 0.250508 0.769189
vt 0.474494 0.731618
vt 0.287638 0.544949
vt 0.289751 0.981015
vt 0.288750 0.731293
vt 0.287630 0.731279
vt 0.473569 0.768031
vt 0.288176 0.954694
vt 0.288088 0.767761
vt 0.288811 0.768008
s 0
usemtl Material.002
f 9/15/7 10/18/7 12/22/7 11/20/7
f 11/21/8 12/22/8 16/31/8 15/30/8
f 15/29/9 16/31/9 14/27/9 13/24/9
f 13/25/10 14/27/10 10/18/10 9/16/10
f 11/21/11 15/30/11 13/26/11 9/17/11
f 16/32/12 12/23/12 10/19/12 14/28/12
